<?xml version="1.0" standalone="yes"?>
<svg xmlns="http://www.w3.org/2000/svg" width="1968" height="1344">
<path style="fill:#010101; stroke:none;" d="M0 0L0 1344L1968 1344L1968 0L0 0z"/>
<path style="fill:#016fd7; stroke:none;" d="M637 441L637 440L655 425.579L700 388.09L781 346.753L864 305L873 330C857.513 334.555 842.547 347.35 829 355.947C802.606 372.696 772.787 389.141 749.055 409.515C738.665 418.434 739.991 443.366 754 448.08C769.555 453.314 781.846 444.103 794 436C816.618 420.922 839.231 405.843 862 391C877.421 380.948 894.214 368.235 912 362.901C929.248 357.729 950.106 358.627 968 356.831C978.799 355.747 989.199 352.215 1000 351.17C1024.19 348.828 1048.69 348.6 1073 346.169L1123 341.169C1133.97 340.072 1144.99 339.772 1155 334.507C1188 317.144 1186.46 258.455 1151 244.465C1136.37 238.693 1121.12 241.926 1106 241.999C1073.09 242.158 1039.82 243.663 1007 245.911C972.738 248.257 938.265 247.564 904 249.911C891.916 250.738 879.907 249.432 868 252.478C837.83 260.197 807.805 280.85 780 294.753C743.556 312.975 702.831 328.861 669 351.598C651.905 363.087 636.439 378.26 621 391.845C603.088 407.607 584.258 422.596 567.015 439.089C549.482 455.86 540.91 486.019 529 507C526.078 512.148 524.074 518.47 519.867 522.714C509.24 533.437 497.33 543.31 486 553.286C482.019 556.791 477.355 563.115 472 564.458C467.49 565.59 459.751 562.072 455 561.425C444.539 560.001 432.668 560.923 423 565.312C402.863 574.455 386.433 595.247 370 609.714C354.854 623.049 321.793 644.487 338.005 668.906C344.65 678.914 365.754 676.659 374 670.319C392.366 656.2 408.503 638.768 426 623.576C431.2 619.061 438.999 608.337 445.715 606.613C451.122 605.224 461.092 620.373 464.285 624C479.7 641.509 495.562 658.659 511.169 676C514.293 679.471 526.698 689.398 525.387 694.424C523.537 701.521 510.288 709.394 505 714.17C492.977 725.029 481.043 735.992 469 746.831C462.868 752.35 454.44 757.796 450.228 765.001C445.503 773.085 445.952 791.463 454.043 797.146C459.842 801.218 470.225 800.823 477 799.787C486.888 798.275 494.888 787.547 502 781.286C515.463 769.432 528.537 757.138 542 745.286C552.418 736.114 563.505 727.539 568.301 714C571.407 705.232 571.71 695.209 570.83 686C570.414 681.648 567.71 675.06 569.788 671C576.352 658.176 596.196 645.792 607 636.286C621.332 623.674 635.81 633.111 653 634.829C665.604 636.09 676.327 633.229 688 628.808C693.653 626.667 700.555 625.56 705.741 622.442C714.144 617.39 720.1 611.377 730 608.104C735.872 606.163 742.073 607.509 748.089 606.74C754.578 605.91 762.059 602.449 768 599.753C774.094 596.987 777.85 591.162 784 588.468C791.18 585.322 799.402 580.882 807 579.059C812.294 577.788 815.821 579.654 821 576.536C831.181 570.404 839.911 561.358 849 553.754C868.411 537.514 887.589 520.993 907 504.754C919.006 494.71 933.86 484.873 942.957 472C957.172 451.883 956.33 416.596 939.699 398.04C924.261 380.815 893.618 377.483 873 386.288C847.684 397.098 824.751 423.296 804 441.13C796.136 447.889 784.168 462.757 774 465.241C764.238 467.625 747.887 460.971 738 459.25C705.077 453.519 670.365 442.436 637 441z"/>
<path style="fill:#010101; stroke:none;" d="M1066 286L1068 303C1084.95 300.858 1102 299.559 1119 297.831C1123.19 297.405 1133.57 296.327 1132.82 290.028C1132.08 283.74 1122.52 283.782 1118 284.089C1100.7 285.268 1083.37 286 1066 286M908 293L918.499 316.883L945 315.086L1024 307L1023 288L956 290.961L908 293M637 440L637 441C670.334 443.653 704.04 453.513 737 459.25C747.095 461.007 765.153 468.326 775 465.372C784.761 462.443 795.34 449.462 803 442.87C815.907 431.762 829.086 420.968 842 409.87C851.972 401.3 861.761 391.514 874 386.288C895.272 377.204 925.45 381.672 940.532 400.004C956.976 419.991 957.015 455.433 939.816 475C929.453 486.789 915.96 496.319 904 506.424C882.323 524.739 860.736 543.166 839 561.411C831.562 567.654 821.168 573.143 814.603 579.965C810.926 583.787 812.277 594.841 811.112 600C807.584 615.623 799.835 630.569 785 638.179C767.172 647.325 744.104 640.866 727 633.424C720.442 630.571 712.717 627.506 708 622C689.969 626.172 674.858 635 656 635C656 645.125 654.773 654.972 653.424 665C652.997 668.178 651.255 674.518 653.067 677.363C656.993 683.526 671.643 687.791 678 691.427C699.931 703.974 736.303 722.415 744.895 748C751.213 766.812 737.395 781.503 734 799C754.55 796.23 773.788 789.391 795 792.428C832.918 797.858 868.743 831.676 871.907 871C872.9 883.351 872.746 896.893 870.196 909C868.343 917.797 864.135 925.829 864.018 935C863.82 950.696 872.998 964.489 873 980C910.468 973.044 950.064 971.962 988 968.169C1001.62 966.807 1016.86 967.221 1030 963.279C1045.77 958.547 1060.18 947.718 1074 939.05C1099.35 923.153 1124.57 906.702 1149 889.424C1161.46 880.616 1194.49 866.417 1197.81 893C1200.44 914.022 1184.38 921.743 1169 932C1144.77 948.153 1120.6 964.373 1096 979.947C1089.63 983.981 1072.27 990.3 1069.21 997.213C1066.82 1002.63 1074.64 1015.96 1077 1021C1098.55 1014.79 1119.93 1000.28 1140 990.247C1173.99 973.252 1211.09 958.109 1243 937.452C1264.84 923.313 1282.35 902.722 1303 887L1303 886C1271.74 875.417 1235.44 873.279 1203 867C1193.53 865.168 1174.1 857.737 1165 861.183C1156.11 864.551 1147.21 875.437 1140 881.579C1107.29 909.446 1065.43 961.971 1017 939.11C994.757 928.609 986.39 905.196 988.09 882C988.613 874.87 994.474 865.805 992.393 859C987.079 841.627 961.932 810.817 980.094 794.464C996.922 779.311 1021.05 764.39 1044 762.17C1050.57 761.534 1057.7 761.656 1064 763.75C1067.57 764.935 1071.2 768.276 1075 768.308C1081.44 768.361 1087.91 762.517 1094 760.789C1098.23 759.588 1102.9 760.864 1107 759.4C1117.8 755.549 1128.08 745.724 1139 740.861C1168.71 727.632 1199.49 717.096 1230 705.947C1245.47 700.295 1263.39 691.046 1280 691C1280 658.664 1274.19 621.75 1261 592C1241.84 600.937 1230 629.898 1221.69 648C1211.14 670.972 1196.23 692.892 1176 708.346C1152.03 726.655 1123.87 735.018 1094 727.761C1082.39 724.939 1069.23 712.536 1057 714.483C1023.85 719.763 1012.16 764.251 980 772.522C932.553 784.722 904.054 729.417 877.834 700C862.163 682.419 843.6 664.979 848.468 639C853.529 611.989 883.779 608.165 897.146 588C902.61 579.756 900.398 564.648 901.089 555C902.095 540.98 907.247 526.705 914.865 515C922.148 503.809 933.359 494.709 945 488.312C953.231 483.788 962.762 481.081 969.711 474.535C992.434 453.129 997.288 414.344 1001 385L951 380C951.001 367.013 960.716 361.862 972 357L972 356C952.406 359.638 931.304 357.638 912 362.608C890.756 368.078 870.218 384.958 852 396.692C833.15 408.833 814.656 421.563 796 434C787.637 439.576 778.462 448.447 768 448.96C761.805 449.263 755.217 449.389 750.015 445.501C740.124 438.108 740.066 418.442 749.055 410.325C764.518 396.361 784.682 385.878 802 374.333C824.615 359.257 847.963 340.789 873 330L864 305C840.545 311.757 817.804 327.851 796 338.753C763.496 355.005 725.442 368.823 696 390.158C675.179 405.247 657.986 425.275 637 440z"/>
<path style="fill:#077192; stroke:none;" d="M997.667 351.333L998.333 351.667L997.667 351.333z"/>
<path style="fill:#0b7265; stroke:none;" d="M999 351L999 352L1005 352L999 351z"/>
<path style="fill:#127d0f; stroke:none;" d="M951 380L1001 385C995.418 414.959 992.791 450.998 969.711 473.7C962.551 480.742 952.629 483.57 944 488.312C932.73 494.505 921.919 503.161 914.865 514C907.247 525.705 902.095 539.98 901.089 554C900.423 563.302 902.518 577.842 897.772 586C885.142 607.706 851.313 611.112 848.174 640C845.137 667.94 862.889 683.492 879.572 703C905.54 733.365 934.293 785.644 982 772.254C1013.1 763.526 1024.81 720.306 1057 714.724C1068.63 712.706 1081.89 725.061 1093 727.761C1122.97 735.042 1151.72 727.318 1176 709.105C1192.57 696.68 1206.23 679.381 1215.74 661C1228.1 637.115 1238.02 608.191 1261 592C1271.43 624.055 1280 657.066 1280 691L1316 697C1316 568.787 1249.65 453.294 1138 389.427C1097.05 366.001 1046.3 348.794 999 352.025C980.814 353.267 951 357.578 951 380z"/>
<path style="fill:#077192; stroke:none;" d="M991.667 352.333L992.333 352.667L991.667 352.333z"/>
<path style="fill:#0b7265; stroke:none;" d="M993.667 352.333L994.333 352.667L993.667 352.333M986 353L987 354L986 353z"/>
<path style="fill:#077192; stroke:none;" d="M981 354L982 355L981 354z"/>
<path style="fill:#0b7265; stroke:none;" d="M982 354L983 355L982 354z"/>
<path style="fill:#010101; stroke:none;" d="M1037.74 393.067C1033.47 396.207 1033.83 415.578 1032.92 421C1029.24 442.808 1023.29 466.154 1011.3 485C1004.95 495.002 997.229 504.309 987 510.536C974.609 518.08 960.328 521.584 950.439 533.015C938.548 546.759 936.286 563.527 935.089 581C934.571 588.565 935.683 595.728 932.934 603C927.857 616.431 916.574 625.244 905 632.999C899.948 636.384 889.51 641.197 887.161 647.09C884.454 653.884 899.372 665.555 903.286 670C917.097 685.688 929.978 702.126 943.579 718C948.782 724.072 956.729 734.325 965 736.188C973.75 738.159 983.818 722.248 989.004 717C1004.4 701.415 1022.78 681.661 1046 679.174C1059.12 677.769 1073.53 678.476 1086 682.865C1095.53 686.219 1104.73 693.509 1115 693.959C1126.36 694.456 1138.09 688.019 1147 681.511C1181.95 655.992 1189.21 614.046 1215.42 582C1221.71 574.316 1228.39 567.301 1236 560.92C1239.01 558.4 1243.83 555.552 1242.64 550.999C1238.95 536.891 1225.31 521.604 1216.85 510C1186.54 468.451 1142.46 431.907 1095 411.579C1081.2 405.669 1067.39 400.055 1053 395.72C1049.54 394.678 1041.05 390.637 1037.74 393.067M882 463C886.555 460.888 890.156 457.293 894 454.08C897.275 451.343 900.724 448.675 903.671 445.575C909.727 439.202 908.725 427.381 898 426.608C890.711 426.083 882.101 436.785 877.001 441.08C874.92 442.833 871.335 445.044 871.037 448.039C870.535 453.08 879.147 459.256 882 463M597 478C590.852 488.424 585.427 499.3 579.781 510C577.593 514.147 573.135 520.233 572.954 525C572.632 533.499 590.108 546.877 595.424 553C603.587 562.401 612.811 576.291 623.286 583.062C627.327 585.674 633.384 585.82 638 586.881C644.167 588.299 651.645 590.93 658 590.504C675.787 589.312 697.253 577.178 714 571.053C728.732 565.665 743.433 560.227 758 554.4C761.802 552.879 771.684 550.735 773.306 546.582C774.469 543.606 772.357 538.923 771.627 536C769.382 527.022 766.871 518.064 765 509L696 496.611L597 478M814 521L847 494C844.19 489.996 838.952 481.652 833.996 480.342C828.623 478.922 811.203 495.032 809.694 500.015C807.915 505.888 812.67 515.198 814 521z"/>
<path style="fill:#016fd7; stroke:none;" d="M1373 655C1353.95 663.884 1343.11 688.306 1324 696.934C1307.71 704.285 1285.98 687.206 1269 692.04C1240.94 700.029 1213.29 711.283 1186 721.576C1163.56 730.04 1139.57 737.931 1119 750.464C1110.25 755.795 1108.22 764.116 1100.96 770.112C1088.57 780.33 1076.83 792.056 1064 801.62C1058.98 805.367 1053.01 805.515 1048 809.591C1040.56 815.646 1031.5 821.783 1025.28 829.089C1021.8 833.167 1021.93 838.445 1017.89 842.246C1010.76 848.964 997.336 855.876 992.533 864.108C977.804 889.353 991.961 929.146 1018 939.982C1067.59 960.617 1108.53 909.375 1142 880.729C1148.95 874.781 1156.68 865.716 1165 861.85C1173.73 857.794 1193.72 865.417 1203 867.197C1236.12 873.545 1270.36 877.555 1303 886L1303 887L1242 937.452L1163 978.247L1077 1021C1075.08 1015.32 1067.76 1004.02 1069.56 998.105C1071.69 991.077 1090.89 983.817 1097 979.947C1122.95 963.52 1148.53 946.498 1174 929.33C1180.55 924.918 1189.72 920.335 1194.49 913.96C1200.14 906.409 1200.36 888.166 1192.79 881.789C1181.98 872.681 1164.02 878.643 1154 885.333C1125.09 904.638 1096.56 924.491 1067 942.808C1055.29 950.066 1043.24 958.764 1030 962.971C1007.7 970.059 980.264 968.843 957 971.169C908.174 976.051 858.206 978.768 810 987.463C800.306 989.211 785.96 991.232 778 997.314C760.757 1010.49 757.873 1042.46 767.273 1061C779.859 1085.82 804.024 1085.01 828 1085C858.597 1084.99 889.436 1082.38 920 1081.04C944.949 1079.95 970.142 1080.54 995 1078.17C1020.11 1075.78 1047.41 1080.28 1072 1074.1C1102.97 1066.33 1133.51 1045.49 1162 1031.25C1197.59 1013.45 1236.51 997.387 1270 975.91C1287.25 964.846 1302.5 949.476 1318 936.13C1336.96 919.803 1357.56 903.969 1374.96 885.985C1395.73 864.517 1402.37 829.648 1418.84 805.089C1426.15 794.198 1440.26 784.965 1450 776.17C1454.83 771.811 1461.53 763.157 1468 761.542C1472.22 760.487 1477.74 764.085 1482 764.7C1491.35 766.048 1502.9 765.807 1512 763.254C1523.06 760.151 1530.62 752.664 1539 745.286C1553.15 732.832 1566.77 719.779 1581 707.424C1588.54 700.881 1601.26 692.775 1604.53 682.996C1611.86 661.094 1594.02 642.84 1572 652.652C1565.46 655.567 1560.32 661.957 1555 666.576C1541.1 678.643 1527.89 691.509 1514 703.576C1508.97 707.942 1501.64 717.86 1495.01 719.387C1489.4 720.681 1481.12 707.655 1477.83 704C1462.24 686.675 1446.97 668.945 1430.96 652C1427.16 647.975 1413.51 637.088 1416.02 631.001C1418.89 624.065 1429.51 617.769 1435 612.831C1450.7 598.698 1466.17 584.268 1482 570.286C1491.77 561.654 1499.51 542.763 1488.77 531.108C1471.52 512.374 1447.22 537.526 1435 548.286C1422.51 559.284 1410.37 570.696 1398 581.831C1389.2 589.748 1379.38 597.061 1374.13 608C1367.55 621.72 1368.5 640.829 1373 655z"/>
<path style="fill:#077192; stroke:none;" d="M807 578L807 579L811 579L807 578z"/>
<path style="fill:#0b7265; stroke:none;" d="M805 579L806 580L805 579z"/>
<path style="fill:#127d0f; stroke:none;" d="M813 579C795.083 579.16 779.615 591.817 766.911 602.664C759.087 609.343 748.453 606.61 739 607.039C732.64 607.328 726.824 609.85 721 612.201C716.935 613.841 711.053 615.68 709.086 620.028C706.844 624.986 714.706 627.921 718 629.691C728.826 635.508 740.75 640.209 753 641.714C761.735 642.787 772.593 643.008 781 640.251C806.434 631.909 813 602.51 813 579z"/>
<path style="fill:#0b7265; stroke:none;" d="M803 580L804 581L803 580z"/>
<path style="fill:#077192; stroke:none;" d="M800 581L801 582L800 581z"/>
<path style="fill:#0b7265; stroke:none;" d="M801 581L802 582L801 581M798 582L799 583L798 582M796 583L797 584L796 583M794 584L795 585L794 584z"/>
<path style="fill:#077192; stroke:none;" d="M791 585L792 586L791 585z"/>
<path style="fill:#0b7265; stroke:none;" d="M792 585L793 586L792 585M789 586L790 587L789 586z"/>
<path style="fill:#077192; stroke:none;" d="M786 587L787 588L786 587z"/>
<path style="fill:#0b7265; stroke:none;" d="M787 587L788 588L787 587z"/>
<path style="fill:#077192; stroke:none;" d="M783 588L784 589L783 588z"/>
<path style="fill:#0b7265; stroke:none;" d="M784 588L785 589L784 588M781 589L782 590L781 589z"/>
<path style="fill:#077192; stroke:none;" d="M779 590L780 591L779 590z"/>
<path style="fill:#0b7265; stroke:none;" d="M778 591L779 592L778 591M777 592L778 593L777 592M776 593L777 594L776 593M774 595L775 596L774 595M773 596L774 597L773 596z"/>
<path style="fill:#010101; stroke:none;" d="M536 631L536 633L537 634L575 602L575 600L574 599L536 631M750 606L750 607C757.991 607.277 766.015 607.149 770 599L750 606z"/>
<path style="fill:#077192; stroke:none;" d="M744 606L745 607L744 606M731.667 607.333L732.333 607.667L731.667 607.333z"/>
<path style="fill:#0b7265; stroke:none;" d="M733.667 607.333L734.333 607.667L733.667 607.333z"/>
<path style="fill:#077192; stroke:none;" d="M728 608L729 609L728 608z"/>
<path style="fill:#0b7265; stroke:none;" d="M729.667 608.333L730.333 608.667L729.667 608.333z"/>
<path style="fill:#077192; stroke:none;" d="M726 609L727 610L726 609z"/>
<path style="fill:#0b7265; stroke:none;" d="M727 609L728 610L727 609z"/>
<path style="fill:#077192; stroke:none;" d="M724 610L725 611L724 610z"/>
<path style="fill:#0b7265; stroke:none;" d="M725 610L726 611L725 610z"/>
<path style="fill:#077192; stroke:none;" d="M721 611L722 612L721 611z"/>
<path style="fill:#0b7265; stroke:none;" d="M722 611L723 612L722 611z"/>
<path style="fill:#077192; stroke:none;" d="M719 612L720 613L719 612z"/>
<path style="fill:#0b7265; stroke:none;" d="M720 612L721 613L720 612M717 613L718 614L717 613M715 614L716 615L715 614z"/>
<path style="fill:#077192; stroke:none;" d="M712 615L713 616L712 615z"/>
<path style="fill:#0b7265; stroke:none;" d="M713 615L714 616L713 615M711 616L712 617L711 616M710 617L711 618L710 617M709 618L710 619L709 618z"/>
<path style="fill:#077192; stroke:none;" d="M708 619L709 620L708 619z"/>
<path style="fill:#127d0f; stroke:none;" d="M621 630C607.865 733.845 624.634 835.293 691.6 919C709.236 941.044 729.75 960.268 752 977.576C759.193 983.171 769.752 993.354 779 994.771C785.397 995.751 792.049 991.554 798 989.771C806.055 987.358 814.766 986.699 823 985C822.989 971.393 809.247 968.088 799 961.564C777.426 947.828 758.023 931.052 740 913C701.766 874.704 674.208 823.328 661.127 771C657.251 755.497 653.011 739.059 653 723C667.203 729.12 680.688 739.121 693 748.375C696.719 751.17 704.206 755.715 705.285 760.576C706.283 765.073 700.973 774.215 700.004 779C697.027 793.692 697.547 809.176 698.925 824C699.516 830.354 699.726 838.67 704.533 843.467C713.324 852.239 729.407 845.71 738 840.604C752.37 832.065 774.391 824.308 791 829.749C812.781 836.885 837.589 861.388 836.87 886C836.533 897.557 829.559 908.227 829.039 920C828.057 942.231 831.074 961.514 836 983L873 980C873 964.435 863.747 950.632 864.054 935C864.232 925.934 868.612 917.74 870.399 909C872.922 896.659 872.918 882.573 871.907 870C868.76 830.88 831.91 794.769 793 792.089C772.482 790.677 753.846 794.893 734 799C738.499 781.654 750.599 766.958 745.211 748C742.853 739.701 735.992 732.889 729.999 727.015C715.314 712.62 696.759 701.587 679 691.427C672.794 687.877 656.486 682.977 653.198 676.61C651.523 673.368 653.271 667.443 653.718 664C654.981 654.284 656 644.803 656 635L621 630z"/>
<path style="fill:#0b7265; stroke:none;" d="M635 631L636 632L635 631M645 633L646 634L645 633M650 634L651 635L650 634z"/>
<path style="fill:#077192; stroke:none;" d="M1282 691L1283 692L1282 691z"/>
<path style="fill:#010101; stroke:none;" d="M1402 691L1365 724L1365 726L1366 727L1404 695L1402 691z"/>
<path style="fill:#077192; stroke:none;" d="M1285 692L1286 693L1285 692M1288 693L1289 694L1288 693z"/>
<path style="fill:#0b7265; stroke:none;" d="M1289 693L1290 694L1289 693z"/>
<path style="fill:#077192; stroke:none;" d="M1294 694L1295 695L1294 694z"/>
<path style="fill:#0b7265; stroke:none;" d="M1295 694L1296 695L1295 694M1300 695L1301 696L1300 695z"/>
<path style="fill:#010101; stroke:none;" d="M652 722L653 723L652 722M653 723C653.002 739.449 657.155 756.114 661.127 772C674.065 823.752 701.221 875.038 739.001 913C757.219 931.306 776.993 948.514 799 962.186C808.706 968.216 822.954 972.093 823 985C825.943 984.454 834.101 985.031 835.212 981.682C836.284 978.454 833.591 973.119 832.71 970C830.74 963.03 829.192 955.254 829.015 948C828.769 937.976 827.894 926.914 829.439 917C830.976 907.14 835.815 897.85 836.826 888C837.99 876.65 831.904 864.036 825.56 855C807.203 828.852 779.612 823.563 751 834.053C738.273 838.719 720.079 855.115 706.185 844.196C700.273 839.55 699.609 830.95 699 824C697.662 808.735 697.049 793.087 700.425 778C701.552 772.963 706.015 765.981 705.709 761C705.389 755.794 697.738 751.184 694 748.375C682.05 739.393 667.494 727.263 653 723M1166 779C1168.43 787.615 1170.69 796.32 1172.87 805C1173.71 808.346 1174.07 813.674 1176.73 816.142C1182.64 821.635 1201.1 821.737 1209 823.081C1236.4 827.741 1263.68 833.271 1291 838.389C1304.33 840.886 1317.7 843.157 1331 845.8C1335.01 846.598 1341.83 849.213 1345.03 845.667C1352.85 837.029 1357.97 822.378 1363.24 812C1364.93 808.689 1368.49 803.893 1367.75 800C1366.38 792.714 1355.07 784.439 1350.29 779C1340.85 768.277 1329.37 750.05 1316.96 742.988C1309.42 738.694 1294.65 736.933 1286 736.174C1274.37 735.154 1259.83 743.453 1249 747.308C1221.24 757.188 1192.72 766.502 1166 779z"/>
<path style="fill:#127d0f; stroke:none;" d="M993 861C1002.6 858.692 1021.34 843.557 1022.12 833C1022.54 827.423 1018.55 820.78 1016 816C1025.2 811.701 1033.25 804.167 1043 801.074C1049.08 799.144 1052.72 805.66 1059 804.046C1065.67 802.332 1070.12 796.584 1075 792.17C1085.31 782.849 1102.95 773.807 1107 760C1101.62 760 1096.12 759.528 1091 761.468C1086.17 763.298 1080.32 767.995 1075 767.806C1068.36 767.569 1062.27 762.196 1055 762.015C1031.53 761.431 1012.01 770.908 993 784.026C986.464 788.537 976.716 793.788 974.558 802C969.736 820.35 985.359 844.854 993 861z"/>
<path style="fill:#0b7265; stroke:none;" d="M1106 761L1107 762L1106 761z"/>
<path style="fill:#077192; stroke:none;" d="M1106 762L1107 763L1106 762z"/>
<path style="fill:#0b7265; stroke:none;" d="M1105 765L1106 766L1105 765z"/>
<path style="fill:#077192; stroke:none;" d="M1104 767L1105 768L1104 767M1103 768L1104 769L1103 768z"/>
<path style="fill:#0b7265; stroke:none;" d="M1101 769L1102 770L1101 769M1100 770L1101 771L1100 770z"/>
<path style="fill:#077192; stroke:none;" d="M1099 771L1100 772L1099 771z"/>
<path style="fill:#0b7265; stroke:none;" d="M1095 774L1096 775L1095 774z"/>
<path style="fill:#077192; stroke:none;" d="M1089 779L1090 780L1089 779z"/>
<path style="fill:#0b7265; stroke:none;" d="M1083 784L1084 785L1083 784M1076 790L1077 791L1076 790M1075 791L1076 792L1075 791M1074 792L1075 793L1074 792M1073 793L1074 794L1073 793M1072 794L1073 795L1072 794M1071 795L1072 796L1071 795z"/>
<path style="fill:#077192; stroke:none;" d="M1070 796L1071 797L1070 796z"/>
<path style="fill:#010101; stroke:none;" d="M1016 816L1022 831C1032.65 826.12 1047.17 813.5 1054 804C1041.41 795.577 1027.09 808.659 1016 816z"/>
<path style="fill:#0b7265; stroke:none;" d="M1064 801L1065 802L1064 801M1063 802L1064 803L1063 802M1061 803L1062 804L1061 803M1057 804L1058 805L1057 804z"/>
<path style="fill:#077192; stroke:none;" d="M1058.67 804.333L1059.33 804.667L1058.67 804.333z"/>
<path style="fill:#010101; stroke:none;" d="M1126 805L1094 832L1107 848L1108 848C1114.35 842.152 1127.58 835.103 1130.8 826.996C1132.82 821.91 1128.49 809.642 1126 805z"/>
<path style="fill:#0b7265; stroke:none;" d="M1022 832L1023 833L1022 832z"/>
<path style="fill:#077192; stroke:none;" d="M1022 833L1023 834L1022 833z"/>
<path style="fill:#0b7265; stroke:none;" d="M1021 836L1022 837L1021 836z"/>
<path style="fill:#077192; stroke:none;" d="M1021.33 837.667L1021.67 838.333L1021.33 837.667z"/>
<path style="fill:#0b7265; stroke:none;" d="M1020 839L1019 841L1020 839z"/>
<path style="fill:#077192; stroke:none;" d="M1020 840L1021 841L1020 840z"/>
<path style="fill:#0b7265; stroke:none;" d="M1018 841L1019 842L1018 841M1017 842L1018 843L1017 842M1016 843L1017 844L1016 843z"/>
<path style="fill:#077192; stroke:none;" d="M1015 844L1016 845L1015 844M1014 845L1015 846L1014 845z"/>
<path style="fill:#0b7265; stroke:none;" d="M1012 846L1013 847L1012 846z"/>
<path style="fill:#077192; stroke:none;" d="M1011 847L1012 848L1011 847M1010 848L1011 849L1010 848M1002 856L1003 857L1002 856M1001 857L1002 858L1001 857M1000 858L1001 859L1000 858z"/>
<path style="fill:#0b7265; stroke:none;" d="M998 859L999 860L998 859M995 860L996 861L995 860z"/>
<path style="fill:#010101; stroke:none;" d="M1071 879L1071 878L1059 864C1050.67 866.826 1038.13 877.203 1033.92 885.039C1030.61 891.212 1035.93 899.472 1043 899.562C1052.08 899.677 1064.71 884.789 1071 879z"/>
<path style="fill:#0b7265; stroke:none;" d="M867 980L868 981L867 980M857 981L858 982L857 981M847 982L848 983L847 982z"/>
<path style="fill:#077192; stroke:none;" d="M820 985L821 986L820 985z"/>
<path style="fill:#0b7265; stroke:none;" d="M816 986L817 987L816 986z"/>
<path style="fill:#077192; stroke:none;" d="M817 986L818 987L817 986z"/>
<path style="fill:#0b7265; stroke:none;" d="M809 987L810 988L809 987M803 988L804 989L803 988z"/>
<path style="fill:#077192; stroke:none;" d="M804.667 988.333L805.333 988.667L804.667 988.333z"/>
<path style="fill:#0b7265; stroke:none;" d="M798.667 989.333L799.333 989.667L798.667 989.333z"/>
<path style="fill:#077192; stroke:none;" d="M800 989L801 990L800 989z"/>
<path style="fill:#0b7265; stroke:none;" d="M795 990L796 991L795 990z"/>
<path style="fill:#077192; stroke:none;" d="M796 990L797 991L796 990M790 992L791 993L790 992z"/>
<path style="fill:#0b7265; stroke:none;" d="M786 993L787 994L786 993z"/>
<path style="fill:#010101; stroke:none;" d="M916 1019L918 1038L1033 1034C1030.67 1027.99 1027.86 1013.72 1022.5 1010.03C1016.61 1005.97 998.886 1010.89 992 1011.71C967.17 1014.68 940.993 1018.79 916 1019M874 1040L873 1024C856.163 1024.01 838.71 1026.66 822 1028.72C818.124 1029.19 805.551 1030.03 808.176 1036.97C810.577 1043.32 819.74 1042 825 1042C841.334 1042 857.662 1040 874 1040z"/>
</svg>
